<svg xmlns="http://www.w3.org/2000/svg" viewBox="0 0 64 64" role="img" aria-label="EdgeStroke icon">
  <defs>
    <linearGradient id="bg" x1="0" y1="0" x2="1" y2="1">
      <stop offset="0" stop-color="#ff5a3a"/>
      <stop offset="1" stop-color="#22b8a3"/>
    </linearGradient>
    <linearGradient id="card" x1="0" y1="0" x2="1" y2="1">
      <stop offset="0" stop-color="#ffffff" stop-opacity="0.98"/>
      <stop offset="1" stop-color="#eef6ff" stop-opacity="0.98"/>
    </linearGradient>
  </defs>

  <rect width="64" height="64" rx="15" fill="url(#bg)"/>

  <rect x="13" y="13" width="38" height="38" rx="9" fill="url(#card)"/>

  <path d="M19 42l8-9 6 6 5-5 7 8" fill="none" stroke="#5f6f95" stroke-width="2.2" stroke-linecap="round" stroke-linejoin="round"/>

  <circle cx="27" cy="24" r="3" fill="#a8bbde"/>

  <path d="M31 26c-5 0-9 4.1-9 9.1 0 5.1 4 9.2 9 9.2h2.8c1.4 0 2.5 1.1 2.5 2.5 0 1.3 1 2.3 2.3 2.3h1.2c4.8 0 8.7-3.9 8.7-8.8v-4.1c0-5.7-4.6-10.2-10.2-10.2z" fill="none" stroke="#ff5a3a" stroke-width="2.8" stroke-linecap="round" stroke-linejoin="round"/>
</svg>
